<svg width="538" height="555" viewBox="0 0 538 555" fill="none" xmlns="http://www.w3.org/2000/svg">
<g filter="url(#filter0_d)">
<path d="M10.7686 351.417C110.181 327.187 166.048 280.751 200.242 197.903C176.011 131.187 168.506 58.2871 166.03 10.6667C173.966 45.5902 187.489 102.494 213.69 159.942C222.538 130.807 229.591 97.9463 235.507 60.9306C248.27 116.785 246.708 163.688 235.606 202.414C246.69 221.407 259.412 239.859 274.042 256.953C274.085 146.695 392.521 41.1376 512 10.6667C409.533 71.1346 298.193 183.725 312.261 294.389C349.859 324.905 396.919 346.486 455.992 351.417C405.101 361.974 363.128 358.704 328.506 345.825C331.25 351.111 334.34 356.372 337.791 361.602C385.222 366.985 441.714 378.89 512 397.111C449.108 386.423 396.293 379.984 350.12 378.271C373.295 406.456 407.747 433.528 455.992 458.472C399.231 434.274 357.643 406.877 328.673 377.815C199.137 377.214 122.079 417.934 10.7686 512C121.666 399.679 180.842 350.567 312.041 359.264C303.351 348.409 296.276 337.374 290.69 326.235C260.137 305.365 237.033 275.708 219.553 242.18C174.276 326.839 77.1591 358.81 10.7686 351.417Z" fill="#FF9E9E"/>
<path d="M0 340.751C99.4125 316.521 155.279 270.084 189.474 187.237C165.243 120.521 157.738 47.6204 155.261 0C163.198 34.9235 176.72 91.8272 202.921 149.276C211.77 120.141 218.822 87.2796 224.739 50.264C237.502 106.118 235.939 153.022 224.837 191.747C235.922 210.74 248.644 229.192 263.273 246.286C263.316 136.028 381.753 30.4709 501.231 2.21001e-05C398.765 60.468 287.425 173.058 301.493 283.722C339.09 314.239 386.15 335.819 445.224 340.751C394.332 351.307 352.359 348.037 317.738 335.159C320.482 340.444 323.571 345.705 327.022 350.936C374.453 356.318 430.946 368.223 501.231 386.444C438.34 375.756 385.525 369.317 339.352 367.604C362.527 395.79 396.979 422.861 445.224 447.806C388.462 423.607 346.874 396.211 317.905 367.148C188.368 366.548 111.31 407.267 0 501.333C110.897 389.013 170.073 339.901 301.272 348.598C292.583 337.743 285.507 326.708 279.921 315.568C249.368 294.698 226.265 265.042 208.784 231.513C163.507 316.173 66.3906 348.143 0 340.751Z" fill="#4D4D4D"/>
</g>
<defs>
<filter id="filter0_d" x="0" y="0" width="538" height="555" filterUnits="userSpaceOnUse" color-interpolation-filters="sRGB">
<feFlood flood-opacity="0" result="BackgroundImageFix"/>
<feColorMatrix in="SourceAlpha" type="matrix" values="0 0 0 0 0 0 0 0 0 0 0 0 0 0 0 0 0 0 127 0"/>
<feOffset dx="19" dy="36"/>
<feGaussianBlur stdDeviation="3.5"/>
<feColorMatrix type="matrix" values="0 0 0 0 0 0 0 0 0 0 0 0 0 0 0 0 0 0 0.25 0"/>
<feBlend mode="normal" in2="BackgroundImageFix" result="effect1_dropShadow"/>
<feBlend mode="normal" in="SourceGraphic" in2="effect1_dropShadow" result="shape"/>
</filter>
</defs>
</svg>
